<svg width="20" height="14" viewBox="0 0 20 14" fill="none" xmlns="http://www.w3.org/2000/svg">
<path d="M15.0642 8.66772L15.0694 6.1337L12.5355 6.14446L12.5389 4.45511L15.0728 4.44435L15.0779 1.91033L16.7672 1.90315L16.762 4.43717L19.2959 4.42641L19.2925 6.11575L16.7586 6.12652L16.7535 8.66054L15.0642 8.66772ZM7.466 7.01067C6.53691 7.01461 5.74222 6.68716 5.08194 6.02831C4.42165 5.36946 4.09245 4.57547 4.09433 3.64632C4.09621 2.71718 4.42863 1.92038 5.09159 1.2559C5.75456 0.591432 6.55058 0.257222 7.47967 0.253274C8.40876 0.249327 9.20345 0.576779 9.86374 1.23563C10.524 1.89448 10.8532 2.68848 10.8513 3.61762C10.8495 4.54676 10.517 5.34356 9.85408 6.00804C9.19112 6.67251 8.39509 7.00672 7.466 7.01067ZM0.695309 13.7968L0.700095 11.4317C0.701063 10.953 0.825128 10.5126 1.07229 10.1103C1.31945 9.70804 1.64736 9.40045 2.05603 9.18755C2.92969 8.74743 3.81721 8.41635 4.71859 8.19431C5.61997 7.97228 6.5352 7.85929 7.46429 7.85534C8.39338 7.85139 9.30817 7.95661 10.2087 8.17099C11.1092 8.38537 11.9954 8.70891 12.8673 9.14162C13.2751 9.35105 13.6017 9.65586 13.8473 10.056C14.0928 10.4562 14.2151 10.8956 14.2141 11.3743L14.2093 13.7393L0.695309 13.7968ZM2.38798 12.1002L12.5235 12.0572L12.5249 11.3814C12.5252 11.2266 12.4868 11.086 12.4096 10.9596C12.3324 10.8332 12.2306 10.7351 12.104 10.6653C11.3446 10.2884 10.578 10.0066 9.80414 9.81981C9.03028 9.63305 8.24919 9.54134 7.46087 9.54469C6.67255 9.54804 5.89108 9.64638 5.11646 9.83972C4.34183 10.0331 3.57405 10.3214 2.81312 10.7047C2.68628 10.7757 2.58402 10.8746 2.50634 11.0017C2.42866 11.1287 2.38966 11.2696 2.38935 11.4245L2.38798 12.1002ZM7.46942 5.32132C7.93396 5.31934 8.33198 5.15224 8.66346 4.82C8.99494 4.48777 9.16115 4.08936 9.16209 3.62479C9.16303 3.16022 8.99843 2.76322 8.66829 2.4338C8.33815 2.10437 7.9408 1.94065 7.47626 1.94262C7.01171 1.9446 6.6137 2.1117 6.28222 2.44394C5.95073 2.77617 5.78452 3.17458 5.78358 3.63915C5.78264 4.10372 5.94724 4.50072 6.27739 4.83014C6.60753 5.15957 7.00487 5.32329 7.46942 5.32132Z" fill="white"/>
</svg>
