<svg width="19" height="19" viewBox="0 0 19 19" fill="none" xmlns="http://www.w3.org/2000/svg">
<mask id="mask0_702_23348" style="mask-type:alpha" maskUnits="userSpaceOnUse" x="0" y="0" width="19" height="19">
<rect width="19" height="19" fill="#D9D9D9"/>
</mask>
<g mask="url(#mask0_702_23348)">
<path d="M7.12504 13.4583H8.70837V10.8656L11.0834 12.2312L11.875 10.8656L9.50004 9.49999L11.875 8.13437L11.0834 6.76874L8.70837 8.13437V5.54166H7.12504V8.13437L4.75004 6.76874L3.95837 8.13437L6.33337 9.49999L3.95837 10.8656L4.75004 12.2312L7.12504 10.8656V13.4583ZM3.16671 15.8333C2.73129 15.8333 2.35855 15.6783 2.04848 15.3682C1.73841 15.0582 1.58337 14.6854 1.58337 14.25V4.74999C1.58337 4.31457 1.73841 3.94183 2.04848 3.63176C2.35855 3.32169 2.73129 3.16666 3.16671 3.16666H12.6667C13.1021 3.16666 13.4749 3.32169 13.7849 3.63176C14.095 3.94183 14.25 4.31457 14.25 4.74999V8.31249L17.4167 5.14582V13.8542L14.25 10.6875V14.25C14.25 14.6854 14.095 15.0582 13.7849 15.3682C13.4749 15.6783 13.1021 15.8333 12.6667 15.8333H3.16671ZM3.16671 14.25H12.6667V4.74999H3.16671V14.25Z" fill="#1C1B1F"/>
</g>
</svg>
